<svg xmlns="http://www.w3.org/2000/svg" viewBox="0 0 5.6 5.6" width="56" height="56"><path d="M2.8 1.019c-.981 0-1.781.8-1.781 1.781s.8 1.781 1.781 1.781S4.581 3.782 4.581 2.8 3.782 1.019 2.8 1.019zm0 .297A1.48 1.48 0 0 1 4.285 2.8a1.48 1.48 0 0 1-1.201 1.457l-.019-.028c-.044-.059-.082-.121-.116-.186.141.057.234.084.283.084.036 0 .052-.053.052-.162 0-.204-.019-.307-.057-.307-.054 0-.157.061-.315.182-.048-.008-.049-.013-.069-.042-.052-.129-.08-.265-.083-.404a.49.49 0 0 1 .009-.097c.202.099.364.149.487.149.068 0 .17-.021.307-.061s.208-.083.208-.129c0-.029-.019-.042-.057-.042a2.08 2.08 0 0 0-.25.023 1.93 1.93 0 0 1-.246.023c-.067-.002-.133-.018-.194-.046-.073-.031-.107-.073-.107-.125 0-.011.001-.019.005-.024.02-.009.026-.009.032-.008s.016-.002.027 0 .019.004.028.004a.66.66 0 0 1 .088.005l.083.009c.068 0 .207-.04.418-.12s.315-.141.315-.186c0-.026-.019-.044-.06-.056-.084-.022-.173-.018-.255.01l-.199.061-.144.041c.008-.033.012-.067.014-.102a1 1 0 0 0-.083-.362.82.82 0 0 0-.19-.306.49.49 0 0 0-.237-.107c-.079-.093-.177-.168-.288-.218a.8.8 0 0 0-.347-.097c-.02 0-.052.006-.094.014l-.074.014-.073.102.018.005c.016 0 .043-.005.074-.01s.054-.004.069-.004c.075 0 .158.016.255.046a.75.75 0 0 1-.204.069l-.061.01c-.017.005-.032.012-.046.023s-.019.023-.019.037l.273-.023c.084 0 .152.008.199.023-.147.011-.285.073-.389.177-.091.097-.139.23-.139.398 0 .06.005.112.014.162l.241 1.178.069.32A1.48 1.48 0 0 1 1.316 2.8 1.48 1.48 0 0 1 2.8 1.316zm.209.923c.055 0 .094.026.115.074-.034-.019-.072-.03-.111-.032-.065 0-.103.013-.121.041.009-.055.048-.083.116-.083zm-.751.037a.11.11 0 0 1 .092.046c-.02-.01-.042-.016-.065-.019-.042.003-.082.017-.115.042-.042.027-.063.058-.061.093-.006-.013-.01-.027-.01-.042a.1.1 0 0 1 .052-.089c.032-.021.069-.032.107-.032zm.807.204c.026 0 .046.014.065.032s.028.04.028.065-.01.046-.028.065-.038.032-.065.032S3.02 2.663 3 2.642s-.032-.04-.032-.065.012-.047.032-.065.04-.032.065-.032zm.041.042c-.015 0-.023.008-.023.023s.007.027.023.027.028-.01.028-.027-.01-.023-.028-.023zm-.788.009c.03.001.059.015.079.037s.037.046.037.074-.015.059-.037.079-.049.033-.079.032-.055-.011-.074-.032-.036-.049-.037-.079.015-.051.037-.074.046-.037.074-.037zm.051.047c-.019 0-.027.008-.027.027s.008.028.027.028.028-.01.028-.028-.008-.027-.028-.027z" fill="#d46b4a"/><g stroke-linejoin="round"><path d="M2.294 4.1l-.018-.233c-.005-.147-.004-.164.01-.164.024 0 .155.05.271.105.089.041.107.053.107.071 0 .011.002.04.006.063l.006.042-.099.054-.267.131c-.008-.022-.013-.045-.016-.069z" fill="#ff9370" stroke="#ff9370" paint-order="normal" stroke-width=".048"/><path d="M3.106 4.131c-.042-.008-.093-.023-.162-.048l-.053-.021c-.029-.024-.074-.03-.09-.053-.033-.045-.029-.082-.016-.121.008-.025.031-.033.058-.051l.036-.026c.144-.107.254-.16.277-.134s.04.129.037.295c-.001.081-.002.093-.007.113-.013.049-.026.056-.079.046z" fill="#ff784f" stroke="#ff784f" paint-order="stroke markers fill" stroke-width=".018"/></g><path d="M2.651 4.012c-.003-.028-.004-.056-.002-.084l.002-.073.032-.01c.025-.007.051-.012.078-.015.054-.006.053-.006.062.101.005.065.004.067-.016.074-.028.007-.057.012-.086.014-.054.004-.067.003-.071-.006z" fill="#ffc1ad" paint-order="normal"/></svg>
