<svg xmlns="http://www.w3.org/2000/svg" viewBox="0 0 5.2 5.2" width="52" height="52">
  <path d="M2.595.452C1.38.452.39 1.442.39 2.657c0 1.216.99 2.205 2.205 2.205 1.216 0 2.205-.989 2.205-2.205C4.8 1.442 3.811.452 2.595.452zm0 .368c1.018 0 1.838.82 1.838 1.837 0 .898-.638 1.641-1.487 1.804l-.023-.035a1.75 1.75 0 0 1-.144-.23c.174.07.29.104.35.104.044 0 .064-.066.064-.201 0-.253-.023-.38-.07-.38-.067 0-.194.075-.39.225-.06-.01-.061-.016-.086-.052a1.431 1.431 0 0 1-.103-.5c0-.04.003-.08.011-.12.25.122.451.184.603.184.084 0 .21-.026.38-.075s.258-.103.258-.16c0-.036-.023-.052-.07-.052-.07 0-.177.01-.31.028a2.392 2.392 0 0 1-.304.029.615.615 0 0 1-.24-.057c-.09-.038-.133-.09-.133-.155 0-.014.001-.023.006-.03a.023.023 0 0 1 .017-.01.063.063 0 0 1 .023 0c.008 0 .02-.002.034 0 .014 0 .024.005.035.005.024 0 .062 0 .109.006s.082.011.103.011c.084 0 .256-.05.517-.149.26-.1.39-.175.39-.23 0-.032-.024-.055-.074-.069a.55.55 0 0 0-.316.012c-.076.02-.157.046-.247.075-.09.028-.148.043-.178.051a.69.69 0 0 0 .017-.126c0-.128-.035-.278-.103-.448a1.017 1.017 0 0 0-.235-.379.608.608 0 0 0-.293-.132 1.021 1.021 0 0 0-.356-.27.991.991 0 0 0-.43-.12c-.025 0-.065.007-.116.017l-.092.017-.091.126.022.006c.02 0 .053-.006.092-.012.04-.005.067-.005.086-.005.093 0 .196.02.316.057a.93.93 0 0 1-.252.086l-.075.012a.172.172 0 0 0-.057.028c-.018.013-.023.028-.023.046.152-.016.262-.028.338-.028.104 0 .188.01.247.028a.762.762 0 0 0-.482.219c-.113.12-.172.285-.172.493 0 .074.006.139.017.201.052.326.152.812.299 1.459l.086.396a1.832 1.832 0 0 1-1.143-1.7C.758 1.64 1.578.82 2.595.82zm.259 1.143c.068 0 .116.032.143.092a.329.329 0 0 0-.137-.04c-.08 0-.128.016-.15.051.011-.068.06-.103.144-.103zm-.93.046c.051 0 .087.022.114.057a.228.228 0 0 0-.08-.023.276.276 0 0 0-.143.052c-.052.033-.078.072-.075.115a.122.122 0 0 1-.012-.052c0-.046.021-.083.064-.11a.25.25 0 0 1 .132-.04zm.999.252c.032 0 .057.017.08.04a.108.108 0 0 1 .035.08c0 .031-.012.057-.035.081-.023.025-.047.04-.08.04-.03 0-.056-.015-.08-.04-.025-.024-.04-.05-.04-.08 0-.032.015-.058.04-.08.024-.023.05-.04.08-.04zm.051.052c-.018 0-.028.01-.028.029 0 .021.009.034.028.034.022 0 .035-.013.035-.034 0-.02-.013-.029-.035-.029zm-.976.011a.14.14 0 0 1 .098.046c.029.03.046.057.046.092a.14.14 0 0 1-.046.098.133.133 0 0 1-.098.04.121.121 0 0 1-.092-.04.14.14 0 0 1-.046-.098c0-.035.018-.063.046-.092.03-.028.057-.046.092-.046zm.063.058c-.024 0-.034.01-.034.034 0 .022.01.035.034.035.025 0 .035-.013.035-.035 0-.024-.01-.034-.035-.034z" style="fill:#d46b4a;fill-opacity:1;stroke-width:.183748" transform="translate(-.102 -.045)"/>
  <path style="opacity:1;fill:#ff9370;fill-opacity:1;stroke:#ff9370;stroke-width:.06;stroke-linecap:round;stroke-linejoin:round;stroke-miterlimit:4;stroke-dasharray:none;stroke-opacity:1;paint-order:normal" d="M2.075 4.255a3.06 3.06 0 0 1-.022-.289c-.006-.182-.005-.203.013-.203.03 0 .192.062.335.13.11.051.132.066.132.088 0 .014.003.05.007.078l.007.052-.122.067c-.11.06-.317.162-.33.162a.375.375 0 0 1-.02-.085z" transform="translate(-.102 -.045)"/>
  <path style="opacity:1;fill:#ff784f;fill-opacity:1;stroke:#ff784f;stroke-width:.221;stroke-linecap:round;stroke-linejoin:round;stroke-miterlimit:4;stroke-dasharray:none;stroke-opacity:1;paint-order:stroke markers fill" d="M30.812 42.933c-.517-.095-1.15-.283-2.01-.594-.322-.117-.621-.232-.66-.26-.365-.299-.914-.374-1.117-.652-.406-.554-.356-1.01-.198-1.502.099-.31.386-.41.724-.633l.44-.327c1.788-1.328 3.139-1.981 3.433-1.66.336.367.492 1.603.464 3.655-.014 1.004-.024 1.148-.092 1.399-.165.603-.324.696-.984.574z" transform="matrix(.1 0 0 .1 -.102 -.045)"/>
  <path style="opacity:1;fill:#ffc1ad;fill-opacity:1;stroke:#ffc1ad;stroke-width:0;stroke-linecap:round;stroke-linejoin:round;stroke-miterlimit:4;stroke-dasharray:none;stroke-opacity:1;paint-order:normal" d="M2.517 4.146a.577.577 0 0 1-.002-.104l.003-.09.04-.013a.573.573 0 0 1 .096-.019c.067-.007.066-.008.077.125.006.081.005.083-.02.092a.61.61 0 0 1-.106.017c-.067.005-.083.004-.088-.008z" transform="translate(-.102 -.045)"/>
</svg>

