<svg width="192" height="192" viewBox="0 0 192 192" fill="none" xmlns="http://www.w3.org/2000/svg">
<path d="M134.54 20.79C133.67 18.97 134.71 16.56 136.97 16.81C151.92 25.51 162.04 41.61 164.1 58.72C165.85 53.89 167.03 48.86 168.98 44.1C169.58 42.42 171.91 42.8 172.42 44.39C175.29 49.76 177.88 55.33 179.7 61.15C184.66 78.95 182.96 98.03 177.58 115.52C171.72 133.76 159.98 150.39 143.72 160.76C109.03 182.95 58.9199 177.49 30.3999 147.55C14.6499 131.57 7.1099 108.27 9.4999 86.08C10.1999 78.85 13.0199 72.09 14.5299 65.05C13.1799 59.25 11.8299 53.2 13.2399 47.25C15.3499 37.11 22.9899 28.41 32.6399 24.75C34.4199 24.1 36.8899 22.78 38.2699 24.85C38.9599 28.95 38.4199 33.16 38.5599 37.31C42.4799 36.29 46.5399 36.09 50.5699 35.94C56.3799 28.68 65.7199 24.71 74.9799 25.33C76.4699 25.27 78.6799 26.17 78.3599 28C77.2099 35.05 74.5599 41.85 74.0799 49.01C73.5299 52.68 76.5899 55.98 80.0599 56.63C83.5099 57.27 87.2499 57.58 90.0699 59.93C96.8399 64.85 96.2099 76.78 88.8199 80.84C83.6699 83.55 77.7199 84.1 72.4199 86.41C70.4699 87.26 70.4599 89.63 70.0899 91.4C77.0399 90.56 83.2599 87.2 89.9199 85.37C98.3599 83.33 106.78 91.6 105.21 100.06C103.79 108.09 95.4599 111.86 89.0199 115.37C95.8999 116.93 103.58 117.58 110 114.09C118.5 109.65 122.93 100.15 124.37 91.05C125.21 84.14 125.46 77.08 124.35 70.19C123.27 63.43 119.49 57.6 116.6 51.53C115.97 50.54 116.62 48.91 117.92 48.99C125.27 49.95 132.72 51.82 138.92 56.05C139.69 44.13 137.67 32.25 134.54 20.79ZM56.0099 50.57C52.9899 48.84 49.5499 47.24 45.9799 47.96C40.4999 48.42 35.8199 51.5 31.5799 54.75C29.7499 51.58 28.1399 48.28 26.6199 44.95C25.2299 48.07 24.1599 51.47 24.5899 54.93C24.7999 58.45 26.5199 61.6 27.1499 65.02C26.4299 69.16 24.2799 72.88 23.3499 76.98C18.0999 96 21.8799 117.44 33.7599 133.27C42.3499 144.76 54.8299 152.87 68.1699 157.81C86.6799 164.54 107.61 163.77 125.87 156.6C140.47 150.87 152.56 139.57 160.02 125.84C168.95 110.23 171.87 91.76 170.24 73.99C166.68 79.41 161.94 83.95 156.84 87.9C155.51 89.24 153.05 87.74 153.19 86.01C152.72 75.38 153.45 64.58 150.99 54.13C150.56 63.5 148.46 72.71 145.14 81.46C144.32 81.45 142.68 81.42 141.86 81.41C139.68 77.98 138.27 74.13 136.47 70.5C137.61 84.85 137.06 100.37 128.78 112.73C122.16 123.37 109.43 129.52 96.9899 128.55C85.4899 128.49 74.7099 123.26 66.1399 115.85C64.8999 114.58 62.3099 113.44 63.3299 111.28C65.8499 109.54 69.1799 109.6 72.0599 108.73C80.1599 107.07 87.7999 103.34 93.9599 97.82C91.3199 96.4 88.7199 98.59 86.1999 99.28C78.1899 102.66 69.4899 103.65 60.8999 104.26C59.5599 104.59 58.2899 103.18 58.3399 101.9C58.2699 96.95 58.0399 91.93 58.7599 87.01C59.6999 80.9 64.5999 75.95 70.4899 74.36C74.7799 72.67 79.8399 72.57 83.5399 69.64C79.6299 68.55 75.3799 68.38 71.8499 66.18C67.3899 63.4 63.7099 59.07 62.4199 53.9C61.2199 49.21 62.2399 44.35 63.3599 39.75C60.1499 42.8 57.6499 46.48 56.0099 50.57Z" fill="url(#paint0_linear)"/>
<defs>
<linearGradient id="paint0_linear" x1="95.8564" y1="174.328" x2="95.8564" y2="16.792" gradientUnits="userSpaceOnUse">
<stop stop-color="#A93AFF"/>
<stop offset="1" stop-color="#FF81FF"/>
</linearGradient>
</defs>
</svg>
