<svg xmlns="http://www.w3.org/2000/svg" width="128" height="128"><path d="M60.617 127.891c-.644-.029-1.073-.074-.954-.1s-.273-.074-.871-.109c-3.93-.227-9.184-1.179-13.048-2.365l-1.214-.365a74.97 74.97 0 0 1-1.864-.65c-7.528-2.69-14.613-6.984-20.505-12.429-8.634-7.979-14.949-18.186-18.13-29.303-1.558-5.446-2.25-10.309-2.356-16.565-.095-5.609.389-10.237 1.619-15.476 1.158-4.933 3.211-10.468 5.368-14.469l.502-.931.055-1.733c.031-.976.128-2.225.224-2.861.648-4.322 2.562-8.25 6.173-12.673.825-1.01 1.258-1.338 1.928-1.457.447-.079 1.197.148 1.572.477.534.469.674.897.716 2.191.025.788.072 1.178.151 1.258.096.097.338-.09 1.448-1.118C29.342 11.891 38.633 6.818 48.879 4.23c5.449-1.377 10.088-1.952 15.728-1.95 2.953.001 4.301.074 7.036.38 11.826 1.325 23.199 6.137 32.466 13.738 2.903 2.381 6.084 5.56 8.595 8.591 4.022 4.854 7.527 10.817 9.966 16.955 1.446 3.639 2.799 8.459 3.461 12.325.422 2.469.815 5.977.837 7.488.006.418.029.539.074.39.083-.274.146 2.934.098 4.943-.021.869-.063 1.406-.098 1.257-.045-.19-.064-.097-.072.347-.006.334-.069 1.27-.14 2.081-1.884 21.476-14.288 40.382-32.694 49.831-5.232 2.686-10.248 4.468-15.966 5.673-3.506.739-8.524 1.389-11.091 1.437-.464.009-.546.027-.347.078.169.043-.09.07-.737.077l-2.602.042c-.882.017-2.131.008-2.775-.022zm5.804-4.348c5.143-.215 9.399-.901 14.198-2.289 16.424-4.75 30.033-16.462 37.047-31.881 2.861-6.29 4.401-12.073 5.147-19.335.176-1.71.147-7.975-.046-9.886-.751-7.455-2.571-13.832-5.83-20.423-1.16-2.346-2.045-3.893-2.25-3.933-.178-.034-.169.179.083 1.982.392 2.802.37 6.654-.043 7.463-.362.709-1.018 1.118-1.8 1.121-1.081.005-1.556-.444-2.239-2.11-.958-2.339-2.63-5.493-3.939-7.434-2.458-3.644-5.598-6.991-9.147-9.751-1.888-1.468-5.374-3.666-5.648-3.561-.179.069-.167.085 1.11 1.494 4.167 4.594 7.409 10.102 9.896 16.812 2.304 6.215 3.65 13.732 3.276 18.298-.188 2.296-.443 2.972-1.306 3.459-1.223.69-2.671.003-2.947-1.398-.209-1.057-.797-3.277-1.16-4.379-.762-2.31-2.015-5.184-2.26-5.184-.175 0-.174.019.076 1.301.281 1.437.532 3.191.709 4.943.202 2 .2 5.979-.003 7.848-.719 6.613-2.8 11.972-6.517 16.78-.957 1.238-3.75 4.052-5.025 5.063-5.315 4.215-11.665 6.821-18.645 7.652-1.837.219-5.756.221-7.501.005-3.463-.429-6.23-1.222-8.984-2.575-1.356-.666-3.13-1.773-4.049-2.526-1.016-.832-2.252-2.113-2.456-2.545-.353-.745-.241-1.547.298-2.144.628-.696 1.139-.789 2.804-.508 2.655.447 5.916.246 8.967-.554 1.511-.396 2.623-.805 3.995-1.469 1.119-.542 1.512-.779 4.538-2.739 2.704-1.751 4.093-2.37 5.945-2.645 1.274-.19 1.468-.242 1.499-.403.037-.19-.767-1.047-1.405-1.499-1.433-1.016-3.127-1.523-5.086-1.523-1.746 0-2.063.077-6.186 1.512-2.117.736-3.326 1.076-4.866 1.368-.911.173-1.311.197-3.209.195-2.016-.002-2.244-.019-3.252-.234-4.677-.999-7.984-3.395-9.722-7.043-1.579-3.315-1.29-6.716.745-8.769 1.082-1.092 2.275-1.592 3.969-1.665.612-.026 1.283-.001 1.679.063.493.08.685.082.759.008.142-.141.177-1.772.058-2.666-.055-.413-.179-1.085-.277-1.494-.362-1.522-.103-1.974 2.095-3.666 1.362-1.048 3.379-2.328 5.854-3.715 2.358-1.321 3.502-2.223 4.217-3.323.364-.56.683-1.335.683-1.661 0-.414-.15-.433-3.599-.444-2.443-.008-3.467-.045-4.293-.154-4.408-.584-6.788-2.133-8.098-5.272-.471-1.129-.506-1.316-.392-2.134.363-2.619 1.671-5.652 3.447-7.994.429-.566.449-.696.105-.696-.606 0-3.164 1.045-4.298 1.756-1.47.922-3.287 2.587-4.109 3.766-.443.635-.85.938-1.442 1.075-.384.088-.601.069-1.855-.171-2.321-.443-3.43-.557-5.385-.557-1.8 0-2.905.102-5.04.464-1.616.274-1.892.157-3.662-1.56-2.081-2.018-3.676-4.442-4.767-7.245-.234-.601-.417-.954-.496-.954-.183 0-.616.699-1.341 2.168-1.466 2.969-2.007 5.747-1.766 9.062.141 1.943.131 2.108-.164 2.68l-2.489 4.995c-2.623 6.015-4.067 11.613-4.699 18.211-.187 1.954-.217 7.232-.051 8.932 1.06 10.839 4.64 20.533 10.753 29.119 10.427 14.645 27.157 23.732 45.13 24.513 2.212.096 2.442.096 4.661.004zm-9.378-7.386c-.438-.117-1.057-.682-1.236-1.128-.199-.498-.183-.969.123-3.486.284-2.343.39-2.711.9-3.141.401-.338.769-.466 1.335-.464.639.002 1.116.218 1.515.684.563.658.576.842.254 3.605-.316 2.71-.433 3.125-.997 3.556a2.05 2.05 0 0 1-1.894.376zm12.075-.183c-.442-.141-1.094-.81-1.209-1.239-.149-.56-.702-4.519-.7-5.011.007-1.612 1.88-2.524 3.188-1.552.625.464.701.687 1.067 3.122.185 1.23.335 2.47.335 2.756 0 .65-.202 1.111-.67 1.534-.53.478-1.28.624-2.012.391zm-24.183-2.974c-.728-.363-1.069-.927-1.071-1.769-.001-.405.138-.825.926-2.794.802-2.004.975-2.365 1.277-2.667 1.251-1.251 3.404-.345 3.397 1.429-.002.458-.113.796-.927 2.813-.989 2.451-1.16 2.735-1.839 3.05-.516.239-1.208.216-1.763-.061zm-10.345-5.807c-.739-.228-1.377-1.107-1.376-1.896.001-.599.211-.962 1.724-2.981 1.669-2.226 1.862-2.406 2.683-2.503 1.268-.15 2.439 1.067 2.216 2.303-.089.492-.232.719-1.659 2.634-1.456 1.955-1.827 2.337-2.407 2.483-.48.121-.682.114-1.182-.04zm-8.699-8.487c-.815-.303-1.281-.912-1.334-1.746-.044-.686.125-1.19.528-1.575.154-.148 1.081-.897 2.059-1.665 1.921-1.509 2.341-1.731 3.054-1.617a1.95 1.95 0 0 1 1.714 2.02c-.002.6-.207 1.087-.616 1.466-.523.484-3.588 2.868-3.884 3.021a2.21 2.21 0 0 1-1.52.097zm43.052-6.597c9.186-1.098 17.329-5.917 21.981-13.008 3.938-6.001 5.38-13.242 4.286-21.507-.595-4.495-2.018-9.502-4.149-14.602-.605-1.448-.596-2.103.037-2.854.466-.553 1.318-.819 2.016-.632.635.171 1.663.946 2.94 2.215 1.29 1.282 2.048 2.194 3.246 3.905.778 1.11.863 1.205.979 1.089.141-.141-1.438-4.828-2.689-7.983-3.492-8.808-7.917-13.877-15.248-17.469-2.357-1.155-5.327-2.252-8.11-2.996-1.804-.482-2.052-.58-2.482-.976-1.161-1.07-.677-2.947.871-3.373.427-.118 1.17-.029 3.477.416 9.717 1.873 19.186 6.291 26.363 12.303 2.46 2.061 4.794 4.402 6.674 6.696.472.577.828.8.827.52-.001-.504-1.137-4.147-1.79-5.74-.919-2.245-1.573-3.371-3.161-5.45-.27-.354-2.535-2.358-3.938-3.485-10.741-8.626-23.978-13.142-37.68-12.853-3.414.072-5.899.305-9.001.843-10.558 1.833-20.167 6.352-28.375 13.347-1.195 1.019-4.37 4.084-4.523 4.367-.064.119-.018.275.193.65.587 1.045 1.528 2.32 2.329 3.158l.835.873.995-.141c2.937-.418 6.093-.424 8.824-.019l1.585.235 1.146-1.164c1.666-1.692 3.038-2.684 5.136-3.713 2.765-1.357 5.58-1.99 8.828-1.986 1.821.002 3.158.152 3.66.411.996.513 1.362 1.632.876 2.676-.235.505-.494.72-1.506 1.253-2.101 1.104-4.019 3.146-5.237 5.573-.462.921-.947 2.282-1.124 3.156-.103.509-.098.563.103.994.48 1.034 1.623 1.849 3.134 2.234 1.394.355 1.977.397 5.186.375 3.414-.024 4.03.034 5.291.494 1.282.468 2.178 1.118 2.494 1.81.204.446.213.528.17 1.652-.055 1.446-.248 2.234-.842 3.437-.976 1.977-2.557 3.517-5.188 5.051-3.235 1.887-4.84 2.873-5.773 3.549l-1.029.745.051.401c.204 1.612.246 2.258.205 3.132-.084 1.781-.496 3.191-1.254 4.299-.327.478-.508.65-.882.84-.624.316-1.135.312-2.098-.015-1.805-.614-3.134-.497-3.67.321-.686 1.047-.431 3.004.609 4.676.488.785 1.586 1.927 2.335 2.429 1.1.738 2.532 1.321 4.047 1.648 1.14.246 4.118.222 5.431-.043 1.253-.253 2.684-.688 5.178-1.575 3.163-1.125 4.46-1.371 6.721-1.276 3.186.134 5.956 1.239 8.033 3.206 1.16 1.098 1.973 2.393 2.206 3.515.163.784.071 1.873-.21 2.486-.435.951-1.387 1.705-2.441 1.935-.238.052-.887.136-1.441.186-2.159.196-2.922.539-6.694 3.01-2.015 1.32-3.204 1.99-4.522 2.549a27.43 27.43 0 0 1-6.531 1.891c-1.665.274-1.812.374-1.044.705 2.072.894 4.761 1.499 7.874 1.769.844.073 4.356-.033 5.463-.165zm-11.08-74.565c-1.372-.498-1.733-2.349-.657-3.37.136-.129.395-.296.576-.372.512-.214 3.212-.495 4.886-.509l1.487-.012.375.263c.206.145.493.454.637.687.491.793.309 1.918-.406 2.521-.464.391-.745.46-2.288.562-.807.053-1.935.152-2.507.22-1.237.146-1.723.149-2.104.011z" fill="#7c5cff" stroke="#7c5cff" stroke-width=".268" paint-order="stroke fill markers"/></svg>
